{
  "accessors": [
    {
      "bufferView": 1,
      "componentType": 5126,
      "count": 2624,
      "max": [
        1.0588787794113159,
        -0.75069236755371094,
        0.94459027051925659
      ],
      "min": [
        -0.035364985466003418,
        -1.3163201808929443,
        0.91674709320068359
      ],
      "type": "VEC3"
    },
    {
      "bufferView": 1,
      "byteOffset": 31488,
      "componentType": 5126,
      "count": 2624,
      "max": [
        0.99905699491500854,
        0.99456566572189331,
        0.99982047080993652
      ],
      "min": [
        -0.99949079751968384,
        -0.99785220623016357,
        -0.99981898069381714
      ],
      "type": "VEC3"
    },
    {
      "bufferView": 0,
      "componentType": 5125,
      "count": 4020,
      "max": [
        2623
      ],
      "min": [
        0
      ],
      "type": "SCALAR"
    },
    {
      "bufferView": 1,
      "byteOffset": 62976,
      "componentType": 5126,
      "count": 1012,
      "max": [
        0.27515646815299988,
        -1.0765622854232788,
        0.60474735498428345
      ],
      "min": [
        -0.27515646815299988,
        -1.1336073875427246,
        0.48817026615142822
      ],
      "type": "VEC3"
    },
    {
      "bufferView": 1,
      "byteOffset": 75120,
      "componentType": 5126,
      "count": 1012,
      "max": [
        0.99799436330795288,
        0.99843907356262207,
        0.9962540864944458
      ],
      "min": [
        -0.99799436330795288,
        -0.99783509969711304,
        -0.99687319993972778
      ],
      "type": "VEC3"
    },
    {
      "bufferView": 0,
      "byteOffset": 16080,
      "componentType": 5125,
      "count": 4896,
      "max": [
        1011
      ],
      "min": [
        0
      ],
      "type": "SCALAR"
    },
    {
      "bufferView": 1,
      "byteOffset": 87264,
      "componentType": 5126,
      "count": 436,
      "max": [
        0.70423704385757446,
        -0.82802963256835938,
        0.63712173700332642
      ],
      "min": [
        0.2691517174243927,
        -1.1169095039367676,
        0.40611499547958374
      ],
      "type": "VEC3"
    },
    {
      "bufferView": 1,
      "byteOffset": 92496,
      "componentType": 5126,
      "count": 436,
      "max": [
        0.99622648954391479,
        0.99716222286224365,
        0.99254339933395386
      ],
      "min": [
        -0.99894875288009644,
        -0.99954438209533691,
        -0.99515151977539062
      ],
      "type": "VEC3"
    },
    {
      "bufferView": 0,
      "byteOffset": 35664,
      "componentType": 5125,
      "count": 2592,
      "max": [
        435
      ],
      "min": [
        0
      ],
      "type": "SCALAR"
    },
    {
      "bufferView": 1,
      "byteOffset": 97728,
      "componentType": 5126,
      "count": 7954,
      "max": [
        1.1266137361526489,
        2.3922159671783447,
        0.49988678097724915
      ],
      "min": [
        -2.2706904411315918,
        0.081594705581665039,
        -0.044768810272216797
      ],
      "type": "VEC3"
    },
    {
      "bufferView": 1,
      "byteOffset": 193176,
      "componentType": 5126,
      "count": 7954,
      "max": [
        0.9983249306678772,
        0.99994826316833496,
        0.9968685507774353
      ],
      "min": [
        -0.99891573190689087,
        -0.99756437540054321,
        -0.99976325035095215
      ],
      "type": "VEC3"
    },
    {
      "bufferView": 0,
      "byteOffset": 46032,
      "componentType": 5125,
      "count": 47232,
      "max": [
        7953
      ],
      "min": [
        0
      ],
      "type": "SCALAR"
    },
    {
      "bufferView": 1,
      "byteOffset": 288624,
      "componentType": 5126,
      "count": 65532,
      "max": [
        1.9095522165298462,
        2.3778955936431885,
        0.63817250728607178
      ],
      "min": [
        -2.2548508644104004,
        -1.565434455871582,
        0.021440714597702026
      ],
      "type": "VEC3"
    },
    {
      "bufferView": 1,
      "byteOffset": 1075008,
      "componentType": 5126,
      "count": 65532,
      "max": [
        0.99993598461151123,
        0.99964570999145508,
        0.9995652437210083
      ],
      "min": [
        -0.99994206428527832,
        -0.99990189075469971,
        -0.99950432777404785
      ],
      "type": "VEC3"
    },
    {
      "bufferView": 0,
      "byteOffset": 234960,
      "componentType": 5125,
      "count": 189870,
      "max": [
        65531
      ],
      "min": [
        0
      ],
      "type": "SCALAR"
    },
    {
      "bufferView": 1,
      "byteOffset": 1861392,
      "componentType": 5126,
      "count": 1260,
      "max": [
        -1.114952564239502,
        -1.3803257942199707,
        0.60819888114929199
      ],
      "min": [
        -1.1315774917602539,
        -1.3930813074111938,
        0.55725246667861938
      ],
      "type": "VEC3"
    },
    {
      "bufferView": 1,
      "byteOffset": 1876512,
      "componentType": 5126,
      "count": 1260,
      "max": [
        0.89893817901611328,
        0.48922920227050781,
        0.89210003614425659
      ],
      "min": [
        -0.99708425998687744,
        -0.41878148913383484,
        -0.98627787828445435
      ],
      "type": "VEC3"
    },
    {
      "bufferView": 0,
      "byteOffset": 994440,
      "componentType": 5125,
      "count": 1890,
      "max": [
        1259
      ],
      "min": [
        0
      ],
      "type": "SCALAR"
    },
    {
      "bufferView": 1,
      "byteOffset": 1891632,
      "componentType": 5126,
      "count": 4514,
      "max": [
        1.8841094970703125,
        -0.14725244045257568,
        0.96357595920562744
      ],
      "min": [
        -1.0300736427307129,
        -1.5525202751159668,
        -0.038840144872665405
      ],
      "type": "VEC3"
    },
    {
      "bufferView": 1,
      "byteOffset": 1945800,
      "componentType": 5126,
      "count": 4514,
      "max": [
        0.68335443735122681,
        -0.72568529844284058,
        0.12888342142105103
      ],
      "min": [
        0.13721391558647156,
        -0.98755460977554321,
        0.038087721914052963
      ],
      "type": "VEC3"
    },
    {
      "bufferView": 0,
      "byteOffset": 1002000,
      "componentType": 5125,
      "count": 25920,
      "max": [
        4513
      ],
      "min": [
        0
      ],
      "type": "SCALAR"
    },
    {
      "bufferView": 1,
      "byteOffset": 1999968,
      "componentType": 5126,
      "count": 10496,
      "max": [
        0.74862074851989746,
        -0.93250501155853271,
        0.69526851177215576
      ],
      "min": [
        0.30191448330879211,
        -1.1912907361984253,
        0.66470849514007568
      ],
      "type": "VEC3"
    },
    {
      "bufferView": 1,
      "byteOffset": 2125920,
      "componentType": 5126,
      "count": 10496,
      "max": [
        0.99998456239700317,
        0.99918347597122192,
        0.99955505132675171
      ],
      "min": [
        -0.99964916706085205,
        -0.99964678287506104,
        -0.99955815076828003
      ],
      "type": "VEC3"
    },
    {
      "bufferView": 0,
      "byteOffset": 1105680,
      "componentType": 5125,
      "count": 15744,
      "max": [
        10495
      ],
      "min": [
        0
      ],
      "type": "SCALAR"
    },
    {
      "bufferView": 1,
      "byteOffset": 2251872,
      "componentType": 5126,
      "count": 8448,
      "max": [
        1.9136182069778442,
        -0.11376571655273438,
        0.98569923639297485
      ],
      "min": [
        -1.0661149024963379,
        -1.5722757577896118,
        -0.049329578876495361
      ],
      "type": "VEC3"
    },
    {
      "bufferView": 1,
      "byteOffset": 2353248,
      "componentType": 5126,
      "count": 8448,
      "max": [
        0.99979257583618164,
        0.99978137016296387,
        0.99689704179763794
      ],
      "min": [
        -0.99972748756408691,
        -0.99976575374603271,
        -0.99686062335968018
      ],
      "type": "VEC3"
    },
    {
      "bufferView": 0,
      "byteOffset": 1168656,
      "componentType": 5125,
      "count": 50688,
      "max": [
        8447
      ],
      "min": [
        0
      ],
      "type": "SCALAR"
    }
  ],
  "asset": {
    "extras": {
      "author": "mobileslabs (https://sketchfab.com/oladoto)",
      "license": "CC-BY-4.0 (http://creativecommons.org/licenses/by/4.0/)",
      "source": "https://sketchfab.com/models/a00f60192d1740f49902009c3d0aac05",
      "title": "Glasses"
    },
    "generator": "Sketchfab-3.42.7",
    "version": "2.0"
  },
  "bufferViews": [
    {
      "buffer": 0,
      "byteLength": 1371408,
      "byteOffset": 0,
      "name": "floatBufferViews",
      "target": 34963
    },
    {
      "buffer": 0,
      "byteLength": 2454624,
      "byteOffset": 1371408,
      "byteStride": 12,
      "name": "floatBufferViews",
      "target": 34962
    }
  ],
  "buffers": [
    {
      "byteLength": 3826032,
      "uri": "scene.bin"
    }
  ],
  "materials": [
    {
      "doubleSided": true,
      "emissiveFactor": [
        0,
        0,
        0
      ],
      "name": "frame",
      "pbrMetallicRoughness": {
        "baseColorFactor": [
          0.43183731790000002,
          0.40066463549999998,
          0.23099297799999999,
          1
        ],
        "metallicFactor": 0.71699380589999995,
        "roughnessFactor": 0.33149104259999995
      }
    },
    {
      "alphaMode": "BLEND",
      "doubleSided": true,
      "emissiveFactor": [
        0,
        0,
        0
      ],
      "name": "nose_protector",
      "pbrMetallicRoughness": {
        "baseColorFactor": [
          0.15025472673623833,
          0.14458662717372089,
          0.14458662717372089,
          0.42608471489999999
        ],
        "metallicFactor": 0.65638774529999999,
        "roughnessFactor": 0.44058195170000003
      }
    },
    {
      "doubleSided": true,
      "emissiveFactor": [
        0,
        0,
        0
      ],
      "name": "leatherhandle",
      "pbrMetallicRoughness": {
        "baseColorFactor": [
          0.31693325647110404,
          0.31340465143306245,
          0.20400507426493467,
          1
        ],
        "metallicFactor": 0.83214532100000005,
        "roughnessFactor": 0.46482437600000004
      }
    },
    {
      "doubleSided": true,
      "emissiveFactor": [
        0,
        0,
        0
      ],
      "name": "handle",
      "pbrMetallicRoughness": {
        "baseColorFactor": [
          0.1156339369,
          0.1156339369,
          0.1156339369,
          1
        ],
        "metallicFactor": 0.82002410889999999,
        "roughnessFactor": 0.21633952749999996
      }
    },
    {
      "alphaMode": "BLEND",
      "doubleSided": true,
      "emissiveFactor": [
        0,
        0,
        0
      ],
      "name": "Glass02",
      "pbrMetallicRoughness": {
        "baseColorFactor": [
          1,
          1,
          1,
          0.20790289679999999
        ],
        "metallicFactor": 0.47456956340000001,
        "roughnessFactor": 0.30118801230000003
      }
    }
  ],
  "meshes": [
    {
      "name": "Cylinder_frame_0",
      "primitives": [
        {
          "attributes": {
            "NORMAL": 1,
            "POSITION": 0
          },
          "indices": 2,
          "material": 0,
          "mode": 4
        }
      ]
    },
    {
      "name": "BezierCurve.002_frame_0",
      "primitives": [
        {
          "attributes": {
            "NORMAL": 4,
            "POSITION": 3
          },
          "indices": 5,
          "material": 0,
          "mode": 4
        }
      ]
    },
    {
      "name": "Cylinder.002_nose_protector_0",
      "primitives": [
        {
          "attributes": {
            "NORMAL": 7,
            "POSITION": 6
          },
          "indices": 8,
          "material": 1,
          "mode": 4
        }
      ]
    },
    {
      "name": "Cube.002_leatherhandle_0",
      "primitives": [
        {
          "attributes": {
            "NORMAL": 10,
            "POSITION": 9
          },
          "indices": 11,
          "material": 2,
          "mode": 4
        }
      ]
    },
    {
      "name": "Cube.001_handle_0",
      "primitives": [
        {
          "attributes": {
            "NORMAL": 13,
            "POSITION": 12
          },
          "indices": 14,
          "material": 3,
          "mode": 4
        }
      ]
    },
    {
      "name": "Cube.001_handle_0",
      "primitives": [
        {
          "attributes": {
            "NORMAL": 16,
            "POSITION": 15
          },
          "indices": 17,
          "material": 3,
          "mode": 4
        }
      ]
    },
    {
      "name": "BezierCurve.001_Glass02_0",
      "primitives": [
        {
          "attributes": {
            "NORMAL": 19,
            "POSITION": 18
          },
          "indices": 20,
          "material": 4,
          "mode": 4
        }
      ]
    },
    {
      "name": "Cylinder.001_frame_0",
      "primitives": [
        {
          "attributes": {
            "NORMAL": 22,
            "POSITION": 21
          },
          "indices": 23,
          "material": 0,
          "mode": 4
        }
      ]
    },
    {
      "name": "BezierCurve_frame_0",
      "primitives": [
        {
          "attributes": {
            "NORMAL": 25,
            "POSITION": 24
          },
          "indices": 26,
          "material": 0,
          "mode": 4
        }
      ]
    }
  ],
  "nodes": [
    {
      "children": [
        1
      ],
      "name": "RootNode (gltf orientation matrix)",
      "rotation": [
        -0.70710678118654746,
        -0,
        -0,
        0.70710678118654757
      ]
    },
    {
      "children": [
        2
      ],
      "name": "RootNode (model correction matrix)"
    },
    {
      "children": [
        3
      ],
      "matrix": [
        1,
        0,
        0,
        0,
        0,
        0,
        1,
        0,
        0,
        -1,
        0,
        0,
        0,
        0,
        0,
        1
      ],
      "name": "f6b6407a7ccf423d8517435d5ea55064.fbx"
    },
    {
      "children": [
        4,
        6,
        8,
        10,
        12,
        15,
        17,
        19
      ],
      "name": "RootNode"
    },
    {
      "children": [
        5
      ],
      "matrix": [
        90.002605262697458,
        -4.1079958259492841e-06,
        43.58367985202262,
        0,
        43.583679852022328,
        -6.3604335890833793e-06,
        -90.002605262697458,
        0,
        6.4694103296680794e-06,
        99.999999999999716,
        -3.9341377711110681e-06,
        0,
        79.563133239746094,
        -0.80039501190185547,
        -190.09764099121094,
        1
      ],
      "name": "Cylinder"
    },
    {
      "mesh": 0,
      "name": "Cylinder_frame_0"
    },
    {
      "children": [
        7
      ],
      "matrix": [
        100.00003814697251,
        -2.9728082012167334e-06,
        4.4592123018251042e-06,
        0,
        4.4592118174931117e-06,
        -1.6292074287340655e-05,
        -100.00003814697124,
        0,
        2.9728077936784187e-06,
        99.999999999998622,
        -1.6292067939183141e-05,
        0,
        79.563156127929688,
        -0.80038905143737793,
        -190.09762573242188,
        1
      ],
      "name": "BezierCurve.002"
    },
    {
      "mesh": 1,
      "name": "BezierCurve.002_frame_0"
    },
    {
      "children": [
        9
      ],
      "matrix": [
        90.002605262697458,
        -4.1079958259492841e-06,
        43.58367985202262,
        0,
        43.583679852022328,
        -6.3604335890833793e-06,
        -90.002605262697458,
        0,
        6.4694103296680794e-06,
        99.999999999999716,
        -3.9341377711110681e-06,
        0,
        79.563148498535156,
        -0.80039501190185547,
        -190.09764099121094,
        1
      ],
      "name": "Cylinder.002"
    },
    {
      "mesh": 2,
      "name": "Cylinder.002_nose_protector_0"
    },
    {
      "children": [
        11
      ],
      "matrix": [
        90.002605262697458,
        -4.1079958259492841e-06,
        43.58367985202262,
        0,
        43.583679852022328,
        -6.3604335890833793e-06,
        -90.002605262697458,
        0,
        6.4694103296680794e-06,
        99.999999999999716,
        -3.9341377711110681e-06,
        0,
        79.563156127929688,
        -0.80038607120513916,
        -190.09765625,
        1
      ],
      "name": "Cube.002"
    },
    {
      "mesh": 3,
      "name": "Cube.002_leatherhandle_0"
    },
    {
      "children": [
        13,
        14
      ],
      "matrix": [
        90.002605262697458,
        -4.1079958259492841e-06,
        43.58367985202262,
        0,
        43.583679852022328,
        -6.3604335890833793e-06,
        -90.002605262697458,
        0,
        6.4694103296680794e-06,
        99.999999999999716,
        -3.9341377711110681e-06,
        0,
        79.563148498535156,
        -0.80038905143737793,
        -190.09762573242188,
        1
      ],
      "name": "Cube.001"
    },
    {
      "mesh": 4,
      "name": "Cube.001_handle_0"
    },
    {
      "mesh": 5,
      "name": "Cube.001_handle_0"
    },
    {
      "children": [
        16
      ],
      "matrix": [
        90.002605262697458,
        -4.1079958259492841e-06,
        43.58367985202262,
        0,
        43.583679852022328,
        -6.3604335890833793e-06,
        -90.002605262697458,
        0,
        6.4694103296680794e-06,
        99.999999999999716,
        -3.9341377711110681e-06,
        0,
        79.563148498535156,
        -0.80038607120513916,
        -190.09764099121094,
        1
      ],
      "name": "BezierCurve.001"
    },
    {
      "mesh": 6,
      "name": "BezierCurve.001_Glass02_0"
    },
    {
      "children": [
        18
      ],
      "matrix": [
        90.002605262697458,
        -4.1079958259492841e-06,
        43.58367985202262,
        0,
        43.583679852022328,
        -6.3604335890833793e-06,
        -90.002605262697458,
        0,
        6.4694103296680794e-06,
        99.999999999999716,
        -3.9341377711110681e-06,
        0,
        79.563148498535156,
        -0.80038905143737793,
        -190.09765625,
        1
      ],
      "name": "Cylinder.001"
    },
    {
      "mesh": 7,
      "name": "Cylinder.001_frame_0"
    },
    {
      "children": [
        20
      ],
      "matrix": [
        90.002605262697458,
        -4.1079958259492841e-06,
        43.58367985202262,
        0,
        43.583679852022328,
        -6.3604335890833793e-06,
        -90.002605262697458,
        0,
        6.4694103296680794e-06,
        99.999999999999716,
        -3.9341377711110681e-06,
        0,
        79.563156127929688,
        -0.80038905143737793,
        -190.09764099121094,
        1
      ],
      "name": "BezierCurve"
    },
    {
      "mesh": 8,
      "name": "BezierCurve_frame_0"
    }
  ],
  "scene": 0,
  "scenes": [
    {
      "name": "OSG_Scene",
      "nodes": [
        0
      ]
    }
  ]
}

